Coordinates
version=1
nRows=14
nColumns=40
inDegrees=yes

Units are S.I. units (second, meters, Newtons, ...)
Angles are in degrees.

endheader
time	pelvis_tilt	pelvis_list	pelvis_rotation	pelvis_tx	pelvis_ty	pelvis_tz	hip_flexion_r	hip_adduction_r	hip_rotation_r	knee_angle_r	knee_angle_r_beta	ankle_angle_r	subtalar_angle_r	mtp_angle_r	hip_flexion_l	hip_adduction_l	hip_rotation_l	knee_angle_l	knee_angle_l_beta	ankle_angle_l	subtalar_angle_l	mtp_angle_l	lumbar_extension	lumbar_bending	lumbar_rotation	arm_flex_r	arm_add_r	arm_rot_r	elbow_flex_r	pro_sup_r	wrist_flex_r	wrist_dev_r	arm_flex_l	arm_add_l	arm_rot_l	elbow_flex_l	pro_sup_l	wrist_flex_l	wrist_dev_l
     45.02750000	     -6.42558183	     -4.58764979	     -8.87762242	      1.16290980	      0.92749042	      0.49253759	     18.40664271	      1.94330072	     -3.63240353	     17.92041954	     17.92041954	      7.93804909	      3.94054917	     -2.75959973	      1.27315809	     -9.88042418	    -16.04137957	     16.63156980	     16.63156980	     17.42915680	     -7.65761852	      0.93817120	     -7.92592691	      6.27851908	      0.17281339	    -10.94807450	    -13.93393319	     -5.30891035	     32.11733357	     45.66007030	      0.00000000	      0.00000000	     34.74771755	    -16.95658286	    -15.67605121	     68.73026516	     48.45616093	      0.00000000	      0.00000000
     45.04942857	     -6.25031370	     -4.67022614	     -8.05921025	      1.16374627	      0.92786686	      0.49800921	     17.85318765	      2.19771655	     -4.15539780	     18.09772499	     18.09772499	      8.44592521	      3.56578338	     -2.87740660	      1.26557727	    -10.52755090	    -15.45406589	     17.38708628	     17.38708628	     17.25249963	     -7.42651711	      0.91901289	     -7.97098958	      6.20732561	      0.28598683	     -9.64155434	    -14.10755010	     -5.32736708	     32.49622617	     45.65869696	      0.00000000	      0.00000000	     32.81942703	    -15.91605286	    -15.30096970	     67.62864199	     48.39109184	      0.00000000	      0.00000000
     45.07135714	     -6.21625516	     -4.81547660	     -7.15489224	      1.16411705	      0.92794069	      0.50337353	     17.40701363	      2.54912791	     -4.72649868	     18.13827663	     18.13827663	      8.89515487	      3.08115740	     -2.90324664	      1.95758149	    -11.46355864	    -14.84498322	     19.08750594	     19.08750594	     17.17653712	     -7.09888927	      0.57142639	     -7.86774242	      6.25858629	     -0.05251364	     -7.84584585	    -14.20793702	     -5.28245577	     32.82720676	     45.66143911	      0.00000000	      0.00000000	     30.75721110	    -15.36395522	    -14.84738360	     65.51244608	     48.29823767	      0.00000000	      0.00000000
     45.09328571	     -6.05582297	     -4.91549275	     -6.30428534	      1.16433701	      0.92814518	      0.50875839	     16.87379299	      2.85932871	     -5.27760379	     18.21872918	     18.21872918	      9.32761563	      2.63438616	     -2.97412771	      2.73590039	    -12.36689337	    -14.11366661	     21.13473580	     21.13473580	     16.90647099	     -7.07728653	      0.02628148	     -7.95454748	      6.21979333	     -0.09302516	     -5.99199845	    -14.28617753	     -5.18887563	     33.12226235	     45.66209217	      0.00000000	      0.00000000	     28.61881627	    -14.57916090	    -14.25864139	     63.43640209	     48.19718106	      0.00000000	      0.00000000
     45.11521429	     -5.95430323	     -4.91353353	     -5.41956388	      1.16424808	      0.92819687	      0.51401034	     16.47827520	      3.09483440	     -5.66875328	     18.36295196	     18.36295196	      9.77058786	      1.91061062	     -3.02392598	      3.93106257	    -13.23775665	    -13.28539363	     23.66244254	     23.66244254	     16.07547885	     -7.24551382	     -1.49700814	     -7.84414774	      6.06869551	     -0.23574767	     -3.61411449	    -14.22756700	     -4.60376217	     32.46771388	     45.68493511	      0.00000000	      0.00000000	     26.83271456	    -14.00875849	    -12.81810016	     59.47844370	     47.98840719	      0.00000000	      0.00000000
     45.13714286	     -5.76824787	     -4.94233231	     -4.55270276	      1.16392407	      0.92817558	      0.51911545	     16.01309747	      3.34344957	     -6.12689675	     18.52224585	     18.52224585	     10.25220667	      1.40308941	     -3.19615550	      5.44422088	    -14.04916900	    -11.80482687	     26.77096304	     26.77096304	     14.64507274	     -8.60382671	     -3.68117113	     -7.94504896	      5.96653255	     -0.17948690	     -1.33828949	    -14.25732931	     -4.20093351	     32.47233018	     45.69286952	      0.00000000	      0.00000000	     24.85750239	    -13.38017931	    -11.35521663	     56.17810640	     47.78385693	      0.00000000	      0.00000000
     45.15907143	     -5.56784233	     -4.97427036	     -3.67101287	      1.16327414	      0.92798624	      0.52405336	     15.60965432	      3.59392864	     -6.60040853	     18.75642304	     18.75642304	     10.68718371	      0.79598897	     -3.37565816	      7.34592777	    -14.82456876	    -10.07562957	     30.39524931	     30.39524931	     12.42487455	    -10.62380481	     -6.88340843	     -8.09548162	      5.84267124	      0.03313098	      0.91209553	    -14.30445363	     -3.80324332	     32.73177664	     45.69748852	      0.00000000	      0.00000000	     22.94716112	    -12.66888973	     -9.46487431	     52.50641406	     47.53094419	      0.00000000	      0.00000000
     45.18100000	     -5.32335403	     -4.93863811	     -2.79932834	      1.16230708	      0.92752673	      0.52876244	     15.37206662	      3.76052494	     -6.98067033	     19.33161262	     19.33161262	     11.22455094	     -0.01843556	     -3.57718773	      9.68470179	    -15.45061717	     -8.12969673	     34.78124105	     34.78124105	     10.69350319	    -12.49835555	     -8.07755455	     -8.35435798	      5.65063319	     -0.19854407	      3.43786389	    -14.21316770	     -3.80181372	     33.78936862	     45.68164178	      0.00000000	      0.00000000	     20.45284086	    -12.14198309	     -8.43269439	     49.61517467	     47.37270159	      0.00000000	      0.00000000
     45.20292857	     -5.05437116	     -4.94500910	     -1.94168361	      1.16105731	      0.92678220	      0.53326554	     15.19704518	      3.97527253	     -7.28418162	     20.01588568	     20.01588568	     11.80268657	     -0.91681913	     -3.68928249	     12.30306261	    -15.95593624	     -5.96140869	     39.47293566	     39.47293566	      8.45418846	    -14.69148782	     -9.38454240	     -8.65278660	      5.51088075	      0.14256092	      5.83993951	    -14.32152016	     -3.56461463	     34.51965405	     45.67351714	      0.00000000	      0.00000000	     18.72220602	    -11.42950266	     -6.15992929	     45.22411745	     47.07951418	      0.00000000	      0.00000000
     45.22485714	     -4.75408182	     -4.91190867	     -1.10460885	      1.15952637	      0.92565977	      0.53749475	     15.19832965	      4.13772452	     -7.49005021	     21.04053509	     21.04053509	     12.47562004	     -2.03636979	     -3.74385325	     15.21113571	    -16.22625582	     -3.70220995	     44.58024180	     44.58024180	      7.04709346	    -16.19900308	     -8.02841347	     -9.02502061	      5.33338296	      0.31626419	      8.33940437	    -14.39978562	     -3.59470166	     35.94040301	     45.65409399	      0.00000000	      0.00000000	     16.69456691	    -10.83621729	     -4.08162394	     41.34518327	     46.79987128	      0.00000000	      0.00000000
     45.24678571	     -4.36635603	     -4.98281189	     -0.28008338	      1.15785703	      0.92413784	      0.54142751	     15.20599015	      4.38121638	     -7.76516218	     22.21685183	     22.21685183	     13.16157529	     -3.13656097	     -4.01686724	     18.11451267	    -16.44183052	     -1.51533029	     49.54519505	     49.54519505	      5.30168462	    -17.52479068	     -7.36308855	     -9.54737470	      5.26465489	      0.34924290	     11.07800683	    -14.49166159	     -3.78679175	     37.36155169	     45.63041661	      0.00000000	      0.00000000	     13.98880833	    -10.11734735	     -3.47190273	     39.21897353	     46.68427408	      0.00000000	      0.00000000
     45.26871429	     -4.02880130	     -4.78819659	      0.49511796	      1.15588037	      0.92234519	      0.54492207	     15.52819096	      4.37803252	     -7.62984799	     23.83434791	     23.83434791	     14.02759121	     -4.78486518	     -3.64348536	     21.28159011	    -15.91634653	      0.86094706	     54.75559369	     54.75559369	      6.33201919	    -17.74101642	      0.70119994	     -9.95263861	      4.94572294	      0.55158507	     13.79734518	    -14.69247331	     -3.70921963	     39.25460086	     45.58419019	      0.00000000	      0.00000000	     12.36671074	     -9.54590740	     -0.84624073	     34.12328468	     46.31737913	      0.00000000	      0.00000000
     45.29064286	     -3.62868246	     -4.72657801	      1.25489595	      1.15392416	      0.92023995	      0.54813750	     15.79050013	      4.51126209	     -7.54996538	     25.45352214	     25.45352214	     14.88591969	     -6.35352628	     -3.31908826	     24.16887118	    -15.43860872	      2.89495738	     59.19038356	     59.19038356	      6.55574780	    -18.24256263	      6.03871516	    -10.46750172	      4.77892659	      0.71997130	     16.52245970	    -14.88267995	     -3.92836001	     41.52886051	     45.53771187	      0.00000000	      0.00000000	     10.03343117	     -9.02615840	      0.96555229	     31.11155693	     46.02919679	      0.00000000	      0.00000000
     45.31257143	     -3.21500004	     -4.66730640	      1.98887758	      1.15195459	      0.91798782	      0.55103028	     16.04401356	      4.64299030	     -7.47829726	     27.07341691	     27.07341691	     15.73019635	     -7.85944634	     -2.95934435	     26.81878872	    -14.86984959	      4.60025858	     62.87799044	     62.87799044	      6.90343329	    -18.66777132	     10.76171574	    -11.00014154	      4.64141396	      0.93962159	     19.33817504	    -15.17167787	     -4.14191555	     43.79728779	     45.49109503	      0.00000000	      0.00000000	      7.64889197	     -8.50582685	      2.54755085	     28.54874678	     45.75802024	      0.00000000	      0.00000000
